<?xml version="1.0" encoding="UTF-8" standalone="no"?>
<svg
   width="512pt"
   height="512pt"
   viewBox="0 0 512 512"
   version="1.1"
   id="svg96"
   sodipodi:docname="chemistry01.svg"
   inkscape:version="1.2.2 (732a01da63, 2022-12-09)"
   xmlns:inkscape="http://www.inkscape.org/namespaces/inkscape"
   xmlns:sodipodi="http://sodipodi.sourceforge.net/DTD/sodipodi-0.dtd"
   xmlns="http://www.w3.org/2000/svg"
   xmlns:svg="http://www.w3.org/2000/svg">
  <defs
     id="defs100" />
  <sodipodi:namedview
     id="namedview98"
     pagecolor="#505050"
     bordercolor="#eeeeee"
     borderopacity="1"
     inkscape:showpageshadow="0"
     inkscape:pageopacity="0"
     inkscape:pagecheckerboard="0"
     inkscape:deskcolor="#505050"
     inkscape:document-units="pt"
     showgrid="false"
     inkscape:zoom="0.83278396"
     inkscape:cx="330.81809"
     inkscape:cy="440.09013"
     inkscape:window-width="1920"
     inkscape:window-height="991"
     inkscape:window-x="-9"
     inkscape:window-y="-9"
     inkscape:window-maximized="1"
     inkscape:current-layer="svg96" />
  <rect
     x="-55.702969"
     y="-43.995251"
     width="614.40002"
     height="614.40002"
     fill="#ffffff"
     fill-opacity="1"
     id="rect2"
     style="fill:#ddff55" />
  <path
     fill-rule="nonzero"
     fill="rgb(77.6474%, 76.470947%, 75.294495%)"
     fill-opacity="1"
     d="M 304.628906 204.945313 L 304.628906 181.804688 L 251.695313 181.804688 L 251.695313 204.945313 C 222.535156 216.609375 201.746094 246.976563 201.746094 282.609375 C 201.746094 328.324219 235.957031 365.382813 278.160156 365.382813 C 320.367188 365.382813 354.578125 328.324219 354.578125 282.609375 C 354.578125 246.976563 333.785156 216.609375 304.628906 204.945313 "
     id="path4" />
  <path
     fill-rule="nonzero"
     fill="rgb(90.98053%, 90.588379%, 90.588379%)"
     fill-opacity="1"
     d="M 314.65625 204.945313 L 314.65625 181.804688 L 261.28125 181.804688 L 261.28125 204.945313 C 231.878906 216.609375 210.914063 246.976563 210.914063 282.609375 C 210.914063 328.324219 245.410156 365.382813 287.96875 365.382813 C 330.527344 365.382813 365.023438 328.324219 365.023438 282.609375 C 365.023438 246.976563 344.058594 216.609375 314.65625 204.945313 "
     id="path6" />
  <path
     fill-rule="nonzero"
     fill="rgb(86.274719%, 84.706116%, 83.137512%)"
     fill-opacity="1"
     d="M 307.625 204.945313 L 307.625 181.804688 L 257.867188 181.804688 L 257.867188 204.945313 C 230.457031 216.609375 210.910156 246.976563 210.910156 282.609375 C 210.910156 328.324219 243.074219 365.382813 282.746094 365.382813 C 322.417969 365.382813 354.578125 328.324219 354.578125 282.609375 C 354.578125 246.976563 335.035156 216.609375 307.625 204.945313 "
     id="path8" />
  <path
     fill-rule="nonzero"
     fill="rgb(58.432007%, 58.432007%, 58.432007%)"
     fill-opacity="1"
     d="M 308.683594 189.804688 L 256.808594 189.804688 C 254.058594 189.804688 251.808594 187.554688 251.808594 184.804688 L 251.808594 177.695313 C 251.808594 174.945313 254.058594 172.695313 256.808594 172.695313 L 308.683594 172.695313 C 311.433594 172.695313 313.683594 174.945313 313.683594 177.695313 L 313.683594 184.804688 C 313.683594 187.554688 311.433594 189.804688 308.683594 189.804688 "
     id="path10" />
  <path
     fill="none"
     stroke-width="8"
     stroke-linecap="butt"
     stroke-linejoin="miter"
     stroke="rgb(19.999695%, 19.999695%, 19.999695%)"
     stroke-opacity="1"
     stroke-miterlimit="10"
     d="M -0.00194375 0.0009875 L -0.00194375 23.141613 L -57.333975 23.141613 L -57.333975 0.0009875 C -88.916006 -11.663075 -111.435537 -42.030262 -111.435537 -77.663075 C -111.435537 -123.377919 -74.38085 -160.436512 -28.666006 -160.436512 C 17.044931 -160.436512 54.103525 -123.377919 54.103525 -77.663075 C 54.103525 -42.030262 31.583994 -11.663075 -0.00194375 0.0009875 Z M -0.00194375 0.0009875 "
     transform="matrix(1, 0, 0, -1, 311.4121, 204.9463)"
     id="path12" />
  <path
     fill-rule="nonzero"
     fill="rgb(77.6474%, 76.470947%, 75.294495%)"
     fill-opacity="1"
     d="M 306.910156 181.804688 L 251.578125 181.804688 C 248.828125 181.804688 246.578125 179.554688 246.578125 176.804688 L 246.578125 169.695313 C 246.578125 166.945313 248.828125 164.695313 251.578125 164.695313 L 306.910156 164.695313 C 309.660156 164.695313 311.910156 166.945313 311.910156 169.695313 L 311.910156 176.804688 C 311.910156 179.554688 309.660156 181.804688 306.910156 181.804688 "
     id="path14" />
  <path
     fill-rule="nonzero"
     fill="rgb(90.98053%, 90.588379%, 90.588379%)"
     fill-opacity="1"
     d="M 314.410156 181.804688 L 258.910156 181.804688 C 256.160156 181.804688 253.910156 179.554688 253.910156 176.804688 L 253.910156 169.695313 C 253.910156 166.945313 256.160156 164.695313 258.910156 164.695313 L 314.410156 164.695313 C 317.160156 164.695313 319.410156 166.945313 319.410156 169.695313 L 319.410156 176.804688 C 319.410156 179.554688 317.160156 181.804688 314.410156 181.804688 "
     id="path16" />
  <path
     fill-rule="nonzero"
     fill="rgb(86.274719%, 84.706116%, 83.137512%)"
     fill-opacity="1"
     d="M 306.910156 181.804688 L 258.910156 181.804688 C 256.160156 181.804688 253.910156 179.554688 253.910156 176.804688 L 253.910156 169.695313 C 253.910156 166.945313 256.160156 164.695313 258.910156 164.695313 L 306.910156 164.695313 C 309.660156 164.695313 311.910156 166.945313 311.910156 169.695313 L 311.910156 176.804688 C 311.910156 179.554688 309.660156 181.804688 306.910156 181.804688 "
     id="path18" />
  <path
     fill="none"
     stroke-width="8"
     stroke-linecap="butt"
     stroke-linejoin="miter"
     stroke="rgb(19.999695%, 19.999695%, 19.999695%)"
     stroke-opacity="1"
     stroke-miterlimit="10"
     d="M 0.00099375 -0.0009875 L -67.749006 -0.0009875 C -70.499006 -0.0009875 -72.749006 2.249013 -72.749006 4.999013 L -72.749006 12.108388 C -72.749006 14.858388 -70.499006 17.108388 -67.749006 17.108388 L 0.00099375 17.108388 C 2.750994 17.108388 5.000994 14.858388 5.000994 12.108388 L 5.000994 4.999013 C 5.000994 2.249013 2.750994 -0.0009875 0.00099375 -0.0009875 Z M 0.00099375 -0.0009875 "
     transform="matrix(1, 0, 0, -1, 316.6201, 181.8037)"
     id="path20" />
  <path
     fill-rule="nonzero"
     fill="rgb(41.175842%, 71.372986%, 69.412231%)"
     fill-opacity="1"
     d="M 215.003906 259.332031 C 212.355469 267.027344 210.910156 275.335938 210.910156 284 C 210.910156 323.671875 241.167969 355.832031 278.496094 355.832031 C 315.820313 355.832031 346.078125 323.671875 346.078125 284 C 346.078125 275.335938 344.632813 267.027344 341.988281 259.332031 Z M 215.003906 259.332031 "
     id="path22" />
  <path
     fill-rule="nonzero"
     fill="rgb(66.667175%, 86.274719%, 85.490417%)"
     fill-opacity="1"
     d="M 224.148438 259.332031 C 221.515625 267.027344 220.078125 275.335938 220.078125 284 C 220.078125 323.671875 250.1875 355.832031 287.328125 355.832031 C 324.46875 355.832031 354.578125 323.671875 354.578125 284 C 354.578125 275.335938 353.140625 267.027344 350.507813 259.332031 Z M 224.148438 259.332031 "
     id="path24" />
  <path
     fill-rule="nonzero"
     fill="rgb(53.334045%, 81.568909%, 80.392456%)"
     fill-opacity="1"
     d="M 223.890625 259.332031 C 221.425781 267.027344 220.078125 275.335938 220.078125 284 C 220.078125 323.671875 248.285156 355.832031 283.078125 355.832031 C 317.875 355.832031 346.078125 323.671875 346.078125 284 C 346.078125 275.335938 344.730469 267.027344 342.265625 259.332031 Z M 223.890625 259.332031 "
     id="path26" />
  <path
     fill="none"
     stroke-width="4"
     stroke-linecap="round"
     stroke-linejoin="round"
     stroke="rgb(19.999695%, 19.999695%, 19.999695%)"
     stroke-opacity="1"
     stroke-miterlimit="10"
     d="M 0.00141875 0.00096875 C -2.811081 -7.694344 -4.346238 -16.002938 -4.346238 -24.667 C -4.346238 -64.338875 27.813919 -96.499031 67.485794 -96.499031 C 107.157669 -96.499031 139.317825 -64.338875 139.317825 -24.667 C 139.317825 -16.002938 137.782669 -7.694344 134.970169 0.00096875 Z M 0.00141875 0.00096875 "
     transform="matrix(1, 0, 0, -1, 215.2603, 259.333)"
     id="path28" />
  <path
     fill-rule="nonzero"
     fill="rgb(66.667175%, 86.274719%, 85.490417%)"
     fill-opacity="1"
     d="M 333.6875 279.917969 C 333.6875 282.769531 331.375 285.085938 328.523438 285.085938 C 325.667969 285.085938 323.355469 282.769531 323.355469 279.917969 C 323.355469 277.0625 325.667969 274.75 328.523438 274.75 C 331.375 274.75 333.6875 277.0625 333.6875 279.917969 "
     id="path30" />
  <path
     fill-rule="nonzero"
     fill="rgb(94.117737%, 33.332825%, 26.274109%)"
     fill-opacity="1"
     d="M 333.6875 279.03125 C 333.6875 282.375 330.976563 285.085938 327.632813 285.085938 C 324.292969 285.085938 321.582031 282.375 321.582031 279.03125 C 321.582031 275.6875 324.292969 272.976563 327.632813 272.976563 C 330.976563 272.976563 333.6875 275.6875 333.6875 279.03125 "
     id="path32" />
  <path
     fill="none"
     stroke-width="2"
     stroke-linecap="round"
     stroke-linejoin="round"
     stroke="rgb(19.999695%, 19.999695%, 19.999695%)"
     stroke-opacity="1"
     stroke-miterlimit="10"
     d="M -0.001 -0.00095 C -0.001 -3.3447 -2.711937 -6.055637 -6.055687 -6.055637 C -9.395531 -6.055637 -12.106469 -3.3447 -12.106469 -0.00095 C -12.106469 3.3428 -9.395531 6.053738 -6.055687 6.053738 C -2.711937 6.053738 -0.001 3.3428 -0.001 -0.00095 Z M -0.001 -0.00095 "
     transform="matrix(1, 0, 0, -1, 333.6885, 279.0303)"
     id="path34" />
  <path
     fill-rule="nonzero"
     fill="rgb(66.667175%, 86.274719%, 85.490417%)"
     fill-opacity="1"
     d="M 323.019531 303.667969 C 323.019531 307.417969 319.980469 310.457031 316.226563 310.457031 C 312.476563 310.457031 309.4375 307.417969 309.4375 303.667969 C 309.4375 299.914063 312.476563 296.875 316.226563 296.875 C 319.980469 296.875 323.019531 299.914063 323.019531 303.667969 "
     id="path36" />
  <path
     fill-rule="nonzero"
     fill="rgb(94.117737%, 33.332825%, 26.274109%)"
     fill-opacity="1"
     d="M 323.019531 302.5 C 323.019531 306.894531 319.457031 310.457031 315.0625 310.457031 C 310.667969 310.457031 307.105469 306.894531 307.105469 302.5 C 307.105469 298.105469 310.667969 294.546875 315.0625 294.546875 C 319.457031 294.546875 323.019531 298.105469 323.019531 302.5 "
     id="path38" />
  <path
     fill="none"
     stroke-width="2"
     stroke-linecap="round"
     stroke-linejoin="round"
     stroke="rgb(19.999695%, 19.999695%, 19.999695%)"
     stroke-opacity="1"
     stroke-miterlimit="10"
     d="M 0.00093125 0.001 C 0.00093125 -4.393531 -3.561569 -7.956031 -7.9561 -7.956031 C -12.350631 -7.956031 -15.913131 -4.393531 -15.913131 0.001 C -15.913131 4.395531 -12.350631 7.954125 -7.9561 7.954125 C -3.561569 7.954125 0.00093125 4.395531 0.00093125 0.001 Z M 0.00093125 0.001 "
     transform="matrix(1, 0, 0, -1, 323.0186, 302.501)"
     id="path40" />
  <path
     fill-rule="nonzero"
     fill="rgb(66.667175%, 86.274719%, 85.490417%)"
     fill-opacity="1"
     d="M 298.988281 289.371094 C 298.988281 295.121094 294.328125 299.785156 288.578125 299.785156 C 282.824219 299.785156 278.164063 295.121094 278.164063 289.371094 C 278.164063 283.617188 282.824219 278.957031 288.578125 278.957031 C 294.328125 278.957031 298.988281 283.617188 298.988281 289.371094 "
     id="path42" />
  <path
     fill-rule="nonzero"
     fill="rgb(94.117737%, 33.332825%, 26.274109%)"
     fill-opacity="1"
     d="M 298.988281 287.921875 C 298.988281 294.472656 293.679688 299.785156 287.125 299.785156 C 280.574219 299.785156 275.261719 294.472656 275.261719 287.921875 C 275.261719 281.367188 280.574219 276.058594 287.125 276.058594 C 293.679688 276.058594 298.988281 281.367188 298.988281 287.921875 "
     id="path44" />
  <path
     fill="none"
     stroke-width="2"
     stroke-linecap="round"
     stroke-linejoin="round"
     stroke="rgb(19.999695%, 19.999695%, 19.999695%)"
     stroke-opacity="1"
     stroke-miterlimit="10"
     d="M -0.00101875 -0.000975 C -0.00101875 -6.551756 -5.309612 -11.864256 -11.8643 -11.864256 C -18.415081 -11.864256 -23.727581 -6.551756 -23.727581 -0.000975 C -23.727581 6.553713 -18.415081 11.862306 -11.8643 11.862306 C -5.309612 11.862306 -0.00101875 6.553713 -0.00101875 -0.000975 Z M -0.00101875 -0.000975 "
     transform="matrix(1, 0, 0, -1, 298.9893, 287.9209)"
     id="path46" />
  <path
     fill-rule="nonzero"
     fill="rgb(94.117737%, 33.332825%, 26.274109%)"
     fill-opacity="1"
     d="M 278.933594 321.792969 C 278.933594 329.644531 272.574219 336.007813 264.722656 336.007813 C 256.875 336.007813 250.511719 329.644531 250.511719 321.792969 C 250.511719 313.945313 256.875 307.582031 264.722656 307.582031 C 272.574219 307.582031 278.933594 313.945313 278.933594 321.792969 "
     id="path48" />
  <path
     fill="none"
     stroke-width="2"
     stroke-linecap="round"
     stroke-linejoin="round"
     stroke="rgb(19.999695%, 19.999695%, 19.999695%)"
     stroke-opacity="1"
     stroke-miterlimit="10"
     d="M -0.00190625 -0.001025 C -0.00190625 -8.692431 -7.048781 -15.743213 -15.740187 -15.743213 C -24.4355 -15.743213 -31.482375 -8.692431 -31.482375 -0.001025 C -31.482375 8.694287 -24.4355 15.741162 -15.740187 15.741162 C -7.048781 15.741162 -0.00190625 8.694287 -0.00190625 -0.001025 Z M -0.00190625 -0.001025 "
     transform="matrix(1, 0, 0, -1, 278.9355, 320.2646)"
     id="path50" />
  <path
     fill-rule="nonzero"
     fill="rgb(77.6474%, 76.470947%, 75.294495%)"
     fill-opacity="1"
     d="M 189.84375 369.304688 L 175.648438 369.304688 C 166.023438 369.304688 158.152344 361.433594 158.152344 351.808594 L 158.152344 183.261719 L 207.339844 183.261719 L 207.339844 351.808594 C 207.339844 361.433594 199.464844 369.304688 189.84375 369.304688 "
     id="path52" />
  <path
     fill-rule="nonzero"
     fill="rgb(90.98053%, 90.588379%, 90.588379%)"
     fill-opacity="1"
     d="M 200.78125 369.304688 L 184.460938 369.304688 C 174.835938 369.304688 166.960938 361.433594 166.960938 351.808594 L 166.960938 183.261719 L 218.277344 183.261719 L 218.277344 351.808594 C 218.277344 361.433594 210.40625 369.304688 200.78125 369.304688 "
     id="path54" />
  <path
     fill-rule="nonzero"
     fill="rgb(86.274719%, 84.706116%, 83.137512%)"
     fill-opacity="1"
     d="M 189.84375 369.304688 L 184.460938 369.304688 C 174.835938 369.304688 166.964844 361.433594 166.964844 351.808594 L 166.964844 183.261719 L 207.339844 183.261719 L 207.339844 351.808594 C 207.339844 361.433594 199.464844 369.304688 189.84375 369.304688 "
     id="path56" />
  <path
     fill-rule="nonzero"
     fill="rgb(58.432007%, 58.432007%, 58.432007%)"
     fill-opacity="1"
     d="M 215.816406 191.273438 L 158.484375 191.273438 C 155.734375 191.273438 153.484375 189.023438 153.484375 186.273438 L 153.484375 177.332031 C 153.484375 174.582031 155.734375 172.332031 158.484375 172.332031 L 215.816406 172.332031 C 218.566406 172.332031 220.816406 174.582031 220.816406 177.332031 L 220.816406 186.273438 C 220.816406 189.023438 218.566406 191.273438 215.816406 191.273438 "
     id="path58" />
  <path
     fill="none"
     stroke-width="8"
     stroke-linecap="butt"
     stroke-linejoin="miter"
     stroke="rgb(19.999695%, 19.999695%, 19.999695%)"
     stroke-opacity="1"
     stroke-miterlimit="10"
     d="M 0.00094375 0.0019125 C -17.12015 0.0019125 -31.127963 14.009725 -31.127963 31.126913 L -31.127963 186.044881 L 31.125944 186.044881 L 31.125944 31.126913 C 31.125944 14.009725 17.118131 0.0019125 0.00094375 0.0019125 Z M 0.00094375 0.0019125 "
     transform="matrix(1, 0, 0, -1, 187.1514, 369.3066)"
     id="path60" />
  <path
     fill-rule="nonzero"
     fill="rgb(88.627625%, 66.275024%, 27.058411%)"
     fill-opacity="1"
     d="M 189.484375 356 L 180.296875 356 C 172.964844 356 166.964844 350 166.964844 342.667969 L 166.964844 237.824219 L 202.816406 237.824219 L 202.816406 342.667969 C 202.816406 350 196.816406 356 189.484375 356 "
     id="path62" />
  <path
     fill-rule="nonzero"
     fill="rgb(96.862793%, 78.431702%, 47.450256%)"
     fill-opacity="1"
     d="M 192.410156 358 L 186.152344 358 C 178.816406 358 172.816406 352 172.816406 344.667969 L 172.816406 237.824219 L 207.339844 237.824219 L 207.339844 343.070313 C 207.339844 351.28125 200.621094 358 192.410156 358 "
     id="path64" />
  <path
     fill-rule="nonzero"
     fill="rgb(93.725586%, 74.118042%, 33.724976%)"
     fill-opacity="1"
     d="M 189.484375 358 L 186.152344 358 C 178.816406 358 172.816406 352 172.816406 344.667969 L 172.816406 237.824219 L 202.816406 237.824219 L 202.816406 344.667969 C 202.816406 352 196.816406 358 189.484375 358 "
     id="path66" />
  <path
     fill="none"
     stroke-width="4"
     stroke-linecap="round"
     stroke-linejoin="round"
     stroke="rgb(19.999695%, 19.999695%, 19.999695%)"
     stroke-opacity="1"
     stroke-miterlimit="10"
     d="M 0.00094375 0 C -11.104525 0 -20.186556 9.085938 -20.186556 20.1875 L -20.186556 120.175781 L 20.188444 120.175781 L 20.188444 20.1875 C 20.188444 9.085938 11.102506 0 0.00094375 0 Z M 0.00094375 0 "
     transform="matrix(1, 0, 0, -1, 187.1514, 358)"
     id="path68" />
  <path
     fill-rule="nonzero"
     fill="rgb(77.6474%, 76.470947%, 75.294495%)"
     fill-opacity="1"
     d="M 210.816406 184.273438 L 155.152344 184.273438 C 152.402344 184.273438 150.152344 182.023438 150.152344 179.273438 L 150.152344 170.332031 C 150.152344 167.582031 152.402344 165.332031 155.152344 165.332031 L 210.816406 165.332031 C 213.566406 165.332031 215.816406 167.582031 215.816406 170.332031 L 215.816406 179.273438 C 215.816406 182.023438 213.566406 184.273438 210.816406 184.273438 "
     id="path70" />
  <path
     fill-rule="nonzero"
     fill="rgb(90.98053%, 90.588379%, 90.588379%)"
     fill-opacity="1"
     d="M 219.152344 184.273438 L 163.484375 184.273438 C 160.734375 184.273438 158.484375 182.023438 158.484375 179.273438 L 158.484375 170.332031 C 158.484375 167.582031 160.734375 165.332031 163.484375 165.332031 L 219.152344 165.332031 C 221.902344 165.332031 224.152344 167.582031 224.152344 170.332031 L 224.152344 179.273438 C 224.152344 182.023438 221.902344 184.273438 219.152344 184.273438 "
     id="path72" />
  <path
     fill-rule="nonzero"
     fill="rgb(86.274719%, 84.706116%, 83.137512%)"
     fill-opacity="1"
     d="M 210.816406 184.273438 L 163.484375 184.273438 C 160.734375 184.273438 158.484375 182.023438 158.484375 179.273438 L 158.484375 170.332031 C 158.484375 167.582031 160.734375 165.332031 163.484375 165.332031 L 210.816406 165.332031 C 213.566406 165.332031 215.816406 167.582031 215.816406 170.332031 L 215.816406 179.273438 C 215.816406 182.023438 213.566406 184.273438 210.816406 184.273438 "
     id="path74" />
  <path
     fill="none"
     stroke-width="8"
     stroke-linecap="butt"
     stroke-linejoin="miter"
     stroke="rgb(19.999695%, 19.999695%, 19.999695%)"
     stroke-opacity="1"
     stroke-miterlimit="10"
     d="M -0.00149375 0.0004625 L -67.333525 0.0004625 C -70.083525 0.0004625 -72.333525 2.250463 -72.333525 5.000463 L -72.333525 13.941869 C -72.333525 16.691869 -70.083525 18.941869 -67.333525 18.941869 L -0.00149375 18.941869 C 2.748506 18.941869 4.998506 16.691869 4.998506 13.941869 L 4.998506 5.000463 C 4.998506 2.250463 2.748506 0.0004625 -0.00149375 0.0004625 Z M -0.00149375 0.0004625 "
     transform="matrix(1, 0, 0, -1, 220.8179, 184.2739)"
     id="path76" />
  <path
     fill-rule="nonzero"
     fill="rgb(97.254944%, 89.804077%, 80.392456%)"
     fill-opacity="1"
     d="M 184.527344 331.667969 C 184.527344 333.808594 182.792969 335.542969 180.65625 335.542969 C 178.515625 335.542969 176.78125 333.808594 176.78125 331.667969 C 176.78125 329.53125 178.515625 327.796875 180.65625 327.796875 C 182.792969 327.796875 184.527344 329.53125 184.527344 331.667969 "
     id="path78" />
  <path
     fill-rule="nonzero"
     fill="rgb(97.254944%, 80.392456%, 56.471252%)"
     fill-opacity="1"
     d="M 183.691406 331.253906 C 183.691406 333.160156 182.144531 334.707031 180.238281 334.707031 C 178.328125 334.707031 176.78125 333.160156 176.78125 331.253906 C 176.78125 329.34375 178.328125 327.796875 180.238281 327.796875 C 182.144531 327.796875 183.691406 329.34375 183.691406 331.253906 "
     id="path80" />
  <path
     fill="none"
     stroke-width="2"
     stroke-linecap="round"
     stroke-linejoin="round"
     stroke="rgb(19.999695%, 19.999695%, 19.999695%)"
     stroke-opacity="1"
     stroke-miterlimit="10"
     d="M -0.00149375 -0.00100625 C -0.00149375 -2.356475 -1.91165 -4.266631 -4.267119 -4.266631 C -6.626494 -4.266631 -8.53665 -2.356475 -8.53665 -0.00100625 C -8.53665 2.354463 -6.626494 4.268525 -4.267119 4.268525 C -1.91165 4.268525 -0.00149375 2.354463 -0.00149375 -0.00100625 Z M -0.00149375 -0.00100625 "
     transform="matrix(1, 0, 0, -1, 185.3179, 332.0654)"
     id="path82" />
  <path
     fill-rule="nonzero"
     fill="rgb(97.254944%, 89.804077%, 80.392456%)"
     fill-opacity="1"
     d="M 197.902344 317.714844 C 197.902344 320.78125 195.414063 323.269531 192.347656 323.269531 C 189.28125 323.269531 186.796875 320.78125 186.796875 317.714844 C 186.796875 314.648438 189.28125 312.160156 192.347656 312.160156 C 195.414063 312.160156 197.902344 314.648438 197.902344 317.714844 "
     id="path84" />
  <path
     fill-rule="nonzero"
     fill="rgb(97.254944%, 80.392456%, 56.471252%)"
     fill-opacity="1"
     d="M 196.707031 317.117188 C 196.707031 319.855469 194.488281 322.074219 191.75 322.074219 C 189.015625 322.074219 186.796875 319.855469 186.796875 317.117188 C 186.796875 314.382813 189.015625 312.164063 191.75 312.164063 C 194.488281 312.164063 196.707031 314.382813 196.707031 317.117188 "
     id="path86" />
  <path
     fill="none"
     stroke-width="2"
     stroke-linecap="round"
     stroke-linejoin="round"
     stroke="rgb(19.999695%, 19.999695%, 19.999695%)"
     stroke-opacity="1"
     stroke-miterlimit="10"
     d="M -0.0015125 -0.00101875 C -0.0015125 -3.161175 -2.564012 -5.723675 -5.724169 -5.723675 C -8.884325 -5.723675 -11.450731 -3.161175 -11.450731 -0.00101875 C -11.450731 3.159138 -8.884325 5.725544 -5.724169 5.725544 C -2.564012 5.725544 -0.0015125 3.159138 -0.0015125 -0.00101875 Z M -0.0015125 -0.00101875 "
     transform="matrix(1, 0, 0, -1, 198.2437, 317.8857)"
     id="path88" />
  <path
     fill-rule="nonzero"
     fill="rgb(97.254944%, 89.804077%, 80.392456%)"
     fill-opacity="1"
     d="M 187.816406 299.832031 C 187.816406 303.972656 184.460938 307.328125 180.320313 307.328125 C 176.179688 307.328125 172.820313 303.972656 172.820313 299.832031 C 172.820313 295.691406 176.179688 292.332031 180.320313 292.332031 C 184.460938 292.332031 187.816406 295.691406 187.816406 299.832031 "
     id="path90" />
  <path
     fill-rule="nonzero"
     fill="rgb(97.254944%, 80.392456%, 56.471252%)"
     fill-opacity="1"
     d="M 186.203125 299.023438 C 186.203125 302.71875 183.207031 305.714844 179.511719 305.714844 C 175.816406 305.714844 172.820313 302.71875 172.820313 299.023438 C 172.820313 295.328125 175.816406 292.332031 179.511719 292.332031 C 183.207031 292.332031 186.203125 295.328125 186.203125 299.023438 "
     id="path92" />
  <path
     fill="none"
     stroke-width="2"
     stroke-linecap="round"
     stroke-linejoin="round"
     stroke="rgb(19.999695%, 19.999695%, 19.999695%)"
     stroke-opacity="1"
     stroke-miterlimit="10"
     d="M -0.00145625 -0.001 C -0.00145625 -4.09475 -3.321769 -7.415062 -7.415519 -7.415062 C -11.513175 -7.415062 -14.833487 -4.09475 -14.833487 -0.001 C -14.833487 4.096656 -11.513175 7.416969 -7.415519 7.416969 C -3.321769 7.416969 -0.00145625 4.096656 -0.00145625 -0.001 Z M -0.00145625 -0.001 "
     transform="matrix(1, 0, 0, -1, 187.6538, 299.749)"
     id="path94" />
</svg>
