<?xml version="1.0" encoding="UTF-8" standalone="no"?>
<svg
   xmlns:dc="http://purl.org/dc/elements/1.1/"
   xmlns:cc="http://creativecommons.org/ns#"
   xmlns:rdf="http://www.w3.org/1999/02/22-rdf-syntax-ns#"
   xmlns:svg="http://www.w3.org/2000/svg"
   xmlns="http://www.w3.org/2000/svg"
   viewBox="0 0 4000 4000"
   height="4000"
   width="4000"
   xml:space="preserve"
   id="svg2"
   version="1.1"><metadata
     id="metadata8"><rdf:RDF><cc:Work
         rdf:about=""><dc:format>image/svg+xml</dc:format><dc:type
           rdf:resource="http://purl.org/dc/dcmitype/StillImage" /></cc:Work></rdf:RDF></metadata><defs
     id="defs6"><clipPath
       id="clipPath20"
       clipPathUnits="userSpaceOnUse"><path
         id="path18"
         d="M 0,3000 H 3000 V 0 H 0 Z" /></clipPath></defs><g
     transform="matrix(1.3333333,0,0,-1.3333333,0,4000)"
     id="g10"><path
       id="path12"
       style="fill:#8ec051;fill-opacity:1;fill-rule:nonzero;stroke:none"
       d="M 0,0 H 3000 V 3000 H 0 Z" /><g
       id="g14"><g
         clip-path="url(#clipPath20)"
         id="g16"><g
           transform="translate(1501.2588,2150.9795)"
           id="g22"><path
             id="path24"
             style="fill:#ffffff;fill-opacity:1;fill-rule:nonzero;stroke:none"
             d="m 0,0 c -120.417,0 -222.151,-298.024 -222.151,-650.752 0,-352.729 101.734,-650.753 222.151,-650.753 120.416,0 222.161,298.024 222.161,650.753 C 222.161,-298.024 120.416,0 0,0 m 0,-1324.979 c -137.744,0 -245.635,296.152 -245.635,674.227 0,378.074 107.891,674.25 245.635,674.25 137.755,0 245.657,-296.176 245.657,-674.25 0,-378.075 -107.902,-674.227 -245.657,-674.227" /></g><g
           transform="translate(1501.2588,1722.375)"
           id="g26"><path
             id="path28"
             style="fill:#ffffff;fill-opacity:1;fill-rule:nonzero;stroke:none"
             d="m 0,0 c -382.843,0 -706.292,-101.743 -706.292,-222.148 0,-120.405 323.449,-222.15 706.292,-222.15 382.854,0 706.291,101.745 706.291,222.15 C 706.291,-101.743 382.854,0 0,0 m 0,-467.794 c -409.214,0 -729.764,107.903 -729.764,245.646 0,137.743 320.55,245.646 729.764,245.646 409.225,0 729.786,-107.903 729.786,-245.646 0,-137.743 -320.561,-245.646 -729.786,-245.646" /></g><g
           transform="translate(1069.6777,2022.6133)"
           id="g30"><path
             id="path32"
             style="fill:#ffffff;fill-opacity:1;fill-rule:nonzero;stroke:none"
             d="m 0,0 c -29.771,0 -52.596,-7.734 -67.833,-22.972 -39.706,-39.694 -27.353,-131.56 33.921,-252.035 64.105,-126.063 173.638,-269.69 308.405,-404.467 218.511,-218.499 455.076,-365.298 588.668,-365.298 29.794,0 52.606,7.732 67.845,22.949 85.159,85.159 -71.631,385.806 -342.326,656.524 C 370.181,-146.8 133.601,0 0,0 m 863.161,-1068.247 c -139.432,0 -382.66,149.559 -605.265,372.164 -136.486,136.466 -247.538,282.24 -312.739,410.445 -67.16,132.04 -77.665,231.23 -29.609,279.272 19.812,19.803 48.213,29.841 84.452,29.841 139.42,0 382.669,-149.561 605.287,-372.167 289.357,-289.355 439.737,-592.352 342.326,-689.717 -19.801,-19.8 -48.202,-29.838 -84.452,-29.838" /></g><g
           transform="translate(1932.8389,2022.6133)"
           id="g34"><path
             id="path36"
             style="fill:#ffffff;fill-opacity:1;fill-rule:nonzero;stroke:none"
             d="m 0,0 c -133.592,0 -370.157,-146.8 -588.668,-365.299 -134.767,-134.776 -244.289,-278.406 -308.405,-404.469 -61.274,-120.472 -73.627,-212.338 -33.922,-252.055 15.238,-15.217 38.063,-22.949 67.834,-22.949 133.601,0 370.181,146.799 588.68,365.298 C -3.786,-408.758 152.981,-108.108 67.845,-22.972 52.605,-7.734 29.794,0 0,0 m -863.161,-1068.247 c -36.239,0 -64.64,10.038 -84.452,29.838 -48.056,48.045 -37.551,147.234 29.609,279.272 65.201,128.208 176.253,273.98 312.738,410.445 C -382.66,-126.086 -139.432,23.475 0,23.475 c 36.25,0 64.651,-10.038 84.452,-29.841 97.411,-97.385 -52.97,-400.339 -342.326,-689.717 -222.618,-222.605 -465.867,-372.164 -605.287,-372.164" /></g><g
           transform="translate(1639.9707,1507.1836)"
           id="g38"><path
             id="path40"
             style="fill:#ffd55c;fill-opacity:1;fill-rule:nonzero;stroke:none"
             d="m 0,0 c 0,76.605 -62.096,138.701 -138.712,138.701 -76.594,0 -138.701,-62.096 -138.701,-138.701 0,-76.604 62.107,-138.722 138.701,-138.722 C -62.096,-138.722 0,-76.604 0,0" /></g><g
           transform="translate(1202.7324,2013.3745)"
           id="g42"><path
             id="path44"
             style="fill:#21d8de;fill-opacity:1;fill-rule:nonzero;stroke:none"
             d="m 0,0 c 0,45.396 -36.797,82.171 -82.184,82.171 -45.395,0 -82.192,-36.775 -82.192,-82.171 0,-45.398 36.797,-82.195 82.192,-82.195 C -36.797,-82.195 0,-45.398 0,0" /></g><g
           transform="translate(2017.291,992.3711)"
           id="g46"><path
             id="path48"
             style="fill:#2a445d;fill-opacity:1;fill-rule:nonzero;stroke:none"
             d="m 0,0 c 0,80.142 -65.017,145.134 -145.155,145.134 -80.189,0 -145.158,-64.992 -145.158,-145.134 0,-80.187 64.969,-145.179 145.158,-145.179 C -65.017,-145.179 0,-80.187 0,0" /></g></g></g></g></svg>